# xmcd CD database file
#
# Track frame offsets:
#	182
#	29842
#	43757
#	67052
#	81600
#	98770
#	123910
#	143182
#	168825
#	193262
#
# Disc length: 2842 seconds
#
# Revision: 0
# Processed by: cddbd v1.5.1PL0 Copyright (c) Steve Scherf et al.
# Submitted via: CDex 1.51
#
DISCID=950b180a
DTITLE=Philippe Duchemin Trio - Alizés
DYEAR=1900
DGENRE=Jazz
TTITLE0=Alizés
TTITLE1=Who Can I Turn To
TTITLE2=Mister Shuffle
TTITLE3=Gravy Waltz
TTITLE4=Blitz
TTITLE5=Over The Rainbow - I Let A Song Out Of My Heart
TTITLE6=Notes en papillotes
TTITLE7=a) Canicule b) Watch What Happens c) My Little Suede Happens
TTITLE8=Serenade In Blue
TTITLE9=Petite douceur
EXTD=
EXTT0=
EXTT1=
EXTT2=
EXTT3=
EXTT4=
EXTT5=
EXTT6=
EXTT7=
EXTT8=
EXTT9=
PLAYORDER=
